<svg width="548" height="396" viewBox="0 0 548 396" fill="none" xmlns="http://www.w3.org/2000/svg">
<path opacity="0.6" d="M318.251 70.106C283.183 68.8835 249.758 57.5269 217.888 45.1043C186.019 32.6818 154.431 18.9154 120.185 12.3328C98.1664 8.0943 72.9852 7.49818 55.2475 19.3398C38.1746 30.7317 32.6599 50.3987 29.6935 68.646C27.4625 82.377 26.1682 96.8254 32.2671 109.682C36.5126 118.604 44.0469 126.106 49.2594 134.654C67.3899 164.394 54.5726 201.071 34.9212 230.134C25.7048 243.774 15.0129 256.753 7.90167 271.256C0.790478 285.76 -2.50323 302.376 3.72158 317.168C9.89099 331.818 24.5868 342.841 40.5114 350.586C72.8542 366.302 110.964 370.799 148.126 373.375C230.388 379.018 313.094 376.573 395.572 374.128C426.097 373.218 456.758 372.304 486.784 367.56C503.459 364.928 520.678 360.755 532.785 350.682C548.151 337.891 551.963 316.238 541.664 300.199C524.39 273.302 476.631 266.619 464.554 237.752C457.911 221.864 464.735 204.163 474.395 189.426C495.109 157.817 529.839 130.082 531.667 93.9458C532.926 69.126 516.231 44.2758 490.415 32.5302C463.36 20.2087 425.84 21.7647 405.882 42.1288C385.329 63.1092 349.209 71.1821 318.251 70.106Z" fill="#587EEC"/>
<path d="M122.436 366.656C122.436 366.656 94.7368 345.65 89.5042 318.931C87.3822 307.709 81.6903 297.48 73.2824 289.777C69.2602 286.153 64.9159 282.907 60.304 280.077" stroke="#9AB1F3" stroke-width="2" stroke-miterlimit="10"/>
<path d="M56.9146 263.244C59.3421 266.538 60.44 280.496 60.44 280.496C60.44 280.496 47.4616 275.369 45.0291 272.08C43.861 270.499 43.3669 268.517 43.6554 266.571C43.944 264.624 44.9915 262.873 46.5676 261.701C48.1438 260.529 50.1193 260.034 52.0598 260.323C54.0002 260.612 55.7466 261.663 56.9146 263.244Z" fill="#587EEC"/>
<path d="M80.1922 274.197C80.4441 278.284 73.8113 290.6 73.8113 290.6C73.8113 290.6 65.6878 279.213 65.431 275.126C65.3333 273.178 66.0049 271.269 67.3003 269.814C68.5957 268.359 70.4105 267.474 72.3515 267.352C74.2925 267.23 76.2034 267.88 77.6701 269.161C79.1368 270.442 80.0411 272.251 80.1872 274.197H80.1922Z" fill="#587EEC"/>
<path d="M102.754 305.68C100.921 309.338 88.9903 316.612 88.9903 316.612C88.9903 316.612 87.7162 302.669 89.5494 299.012C90.4518 297.292 91.9913 295.996 93.8366 295.403C95.682 294.81 97.6856 294.967 99.4163 295.841C101.147 296.715 102.467 298.236 103.091 300.076C103.715 301.916 103.594 303.928 102.754 305.68Z" fill="#587EEC"/>
<path d="M114.484 333.344C113.29 337.259 102.759 346.449 102.759 346.449C102.759 346.449 99.1484 332.925 100.342 329.005C100.916 327.123 102.211 325.548 103.943 324.625C105.674 323.701 107.701 323.506 109.576 324.082C111.451 324.657 113.022 325.956 113.942 327.693C114.863 329.43 115.058 331.463 114.484 333.344Z" fill="#587EEC"/>
<path d="M61.8048 300.502C65.8338 301.048 78.5705 295.278 78.5705 295.278C78.5705 295.278 67.8231 286.347 63.774 285.801C61.8305 285.539 59.863 286.062 58.3041 287.255C56.7452 288.449 55.7228 290.214 55.4616 292.164C55.2005 294.113 55.7221 296.087 56.9117 297.651C58.1012 299.214 59.8614 300.24 61.8048 300.502Z" fill="#587EEC"/>
<path d="M75.9314 332.687C79.9604 331.995 90.3703 322.675 90.3703 322.675C90.3703 322.675 77.4473 317.38 73.4233 318.072C72.4599 318.231 71.5373 318.579 70.7088 319.097C69.8802 319.615 69.1622 320.292 68.5961 321.09C68.0299 321.888 67.6269 322.79 67.4103 323.745C67.1937 324.7 67.1678 325.689 67.3341 326.654C67.5003 327.619 67.8555 328.541 68.379 329.368C68.9026 330.194 69.5842 330.909 70.3844 331.47C71.1847 332.031 72.0877 332.427 73.0415 332.636C73.9953 332.845 74.9809 332.862 75.9415 332.687H75.9314Z" fill="#587EEC"/>
<path d="M93.9359 362.084C98.0203 362.084 109.855 354.663 109.855 354.663C109.855 354.663 98.0152 347.252 93.9308 347.252C91.97 347.252 90.0895 348.033 88.703 349.424C87.3165 350.815 86.5376 352.701 86.5376 354.668C86.5376 356.635 87.3165 358.521 88.703 359.912C90.0895 361.303 91.97 362.084 93.9308 362.084H93.9359Z" fill="#587EEC"/>
<path d="M391.523 184.976C391.523 184.976 408.596 154.639 434.331 145.899C445.138 142.299 454.489 135.282 460.983 125.899C464.029 121.413 466.657 116.656 468.835 111.688" stroke="#9AB1F3" stroke-width="2" stroke-miterlimit="10"/>
<path d="M484.991 106.131C482.06 108.98 468.417 111.931 468.417 111.931C468.417 111.931 471.766 98.341 474.697 95.4867C476.112 94.158 477.99 93.4397 479.927 93.4864C481.865 93.5331 483.707 94.3412 485.056 95.7366C486.406 97.132 487.155 99.0031 487.143 100.947C487.131 102.891 486.358 104.753 484.991 106.131Z" fill="#587EEC"/>
<path d="M477.276 130.698C473.247 131.496 460.218 126.536 460.218 126.536C460.218 126.536 470.391 116.937 474.395 116.154C475.356 115.94 476.35 115.921 477.319 116.097C478.288 116.274 479.212 116.643 480.037 117.183C480.861 117.723 481.57 118.422 482.122 119.241C482.673 120.059 483.056 120.98 483.248 121.949C483.44 122.918 483.437 123.915 483.239 124.883C483.042 125.851 482.653 126.769 482.097 127.584C481.54 128.399 480.827 129.094 479.999 129.629C479.172 130.164 478.245 130.527 477.276 130.698Z" fill="#587EEC"/>
<path d="M449.193 157.312C445.336 155.973 436.567 145.081 436.567 145.081C436.567 145.081 450.165 141.959 454.033 143.298C454.962 143.607 455.821 144.098 456.56 144.743C457.298 145.388 457.902 146.174 458.335 147.054C458.768 147.935 459.023 148.893 459.084 149.873C459.145 150.854 459.012 151.836 458.691 152.764C458.371 153.692 457.87 154.547 457.217 155.279C456.565 156.012 455.773 156.606 454.89 157.029C454.006 157.453 453.048 157.695 452.07 157.744C451.092 157.792 450.114 157.645 449.193 157.312Z" fill="#587EEC"/>
<path d="M423.388 172.649C419.359 171.982 408.903 162.712 408.903 162.712C408.903 162.712 421.791 157.327 425.815 157.994C427.752 158.313 429.483 159.391 430.627 160.991C431.771 162.591 432.235 164.581 431.916 166.524C431.598 168.466 430.523 170.203 428.928 171.35C427.334 172.498 425.35 172.964 423.413 172.644L423.388 172.649Z" fill="#587EEC"/>
<path d="M448.841 115.911C448.836 120.008 456.244 131.896 456.244 131.896C456.244 131.896 463.642 120.024 463.642 115.932C463.668 114.942 463.496 113.957 463.136 113.035C462.776 112.113 462.236 111.272 461.547 110.563C460.858 109.854 460.035 109.29 459.125 108.905C458.216 108.52 457.239 108.322 456.252 108.322C455.265 108.322 454.287 108.52 453.378 108.905C452.468 109.29 451.645 109.854 450.956 110.563C450.267 111.272 449.727 112.113 449.367 113.035C449.007 113.957 448.835 114.942 448.861 115.932L448.841 115.911Z" fill="#587EEC"/>
<path d="M418.91 134.23C420.129 138.14 430.725 147.258 430.725 147.258C430.725 147.258 434.251 133.709 433.022 129.799C432.385 127.987 431.071 126.495 429.359 125.635C427.646 124.775 425.668 124.615 423.84 125.19C422.013 125.764 420.478 127.027 419.561 128.713C418.643 130.399 418.414 132.377 418.92 134.23H418.91Z" fill="#587EEC"/>
<path d="M392.284 156.039C392.828 160.08 401.732 170.876 401.732 170.876C401.732 170.876 407.478 158.12 406.934 154.063C406.826 153.08 406.523 152.129 406.044 151.265C405.564 150.401 404.917 149.643 404.14 149.033C403.364 148.424 402.474 147.977 401.522 147.718C400.571 147.459 399.577 147.393 398.6 147.525C397.623 147.657 396.683 147.983 395.833 148.485C394.984 148.987 394.243 149.654 393.655 150.447C393.066 151.24 392.641 152.144 392.406 153.104C392.171 154.064 392.129 155.062 392.284 156.039Z" fill="#587EEC"/>
<path opacity="0.25" d="M484.991 106.131C482.06 108.98 468.417 111.931 468.417 111.931C468.417 111.931 471.766 98.341 474.697 95.4867C476.112 94.158 477.99 93.4397 479.927 93.4864C481.865 93.5331 483.707 94.3412 485.056 95.7366C486.406 97.132 487.155 99.0031 487.143 100.947C487.131 102.891 486.358 104.753 484.991 106.131Z" fill="black"/>
<path opacity="0.25" d="M477.276 130.698C473.247 131.496 460.218 126.536 460.218 126.536C460.218 126.536 470.391 116.937 474.395 116.154C475.356 115.94 476.35 115.921 477.319 116.097C478.288 116.274 479.212 116.643 480.037 117.183C480.861 117.723 481.57 118.422 482.122 119.241C482.673 120.059 483.056 120.98 483.248 121.949C483.44 122.918 483.437 123.915 483.239 124.883C483.042 125.851 482.653 126.769 482.097 127.584C481.54 128.399 480.827 129.094 479.999 129.629C479.172 130.164 478.245 130.527 477.276 130.698Z" fill="black"/>
<path opacity="0.25" d="M449.193 157.312C445.336 155.973 436.567 145.081 436.567 145.081C436.567 145.081 450.165 141.959 454.033 143.298C454.962 143.607 455.821 144.098 456.56 144.743C457.298 145.388 457.902 146.174 458.335 147.054C458.768 147.935 459.023 148.893 459.084 149.873C459.145 150.854 459.012 151.836 458.691 152.764C458.371 153.692 457.87 154.547 457.217 155.279C456.565 156.012 455.773 156.606 454.89 157.029C454.006 157.453 453.048 157.695 452.07 157.744C451.092 157.792 450.114 157.645 449.193 157.312Z" fill="black"/>
<path opacity="0.25" d="M423.388 172.649C419.359 171.982 408.903 162.712 408.903 162.712C408.903 162.712 421.791 157.327 425.815 157.994C427.752 158.313 429.483 159.391 430.627 160.991C431.771 162.591 432.235 164.581 431.916 166.524C431.598 168.466 430.523 170.203 428.928 171.35C427.334 172.498 425.35 172.964 423.413 172.644L423.388 172.649Z" fill="black"/>
<path opacity="0.25" d="M448.841 115.911C448.836 120.008 456.244 131.896 456.244 131.896C456.244 131.896 463.642 120.024 463.642 115.932C463.668 114.942 463.496 113.957 463.136 113.035C462.776 112.113 462.236 111.272 461.547 110.563C460.858 109.854 460.035 109.29 459.125 108.905C458.216 108.52 457.239 108.322 456.252 108.322C455.265 108.322 454.287 108.52 453.378 108.905C452.468 109.29 451.645 109.854 450.956 110.563C450.267 111.272 449.727 112.113 449.367 113.035C449.007 113.957 448.835 114.942 448.861 115.932L448.841 115.911Z" fill="black"/>
<path opacity="0.25" d="M418.91 134.23C420.129 138.14 430.725 147.258 430.725 147.258C430.725 147.258 434.251 133.709 433.022 129.799C432.385 127.987 431.071 126.495 429.359 125.635C427.646 124.775 425.668 124.615 423.84 125.19C422.013 125.764 420.478 127.027 419.561 128.713C418.643 130.399 418.414 132.377 418.92 134.23H418.91Z" fill="black"/>
<path opacity="0.25" d="M392.284 156.039C392.828 160.08 401.732 170.876 401.732 170.876C401.732 170.876 407.478 158.12 406.934 154.063C406.826 153.08 406.523 152.129 406.044 151.265C405.564 150.401 404.917 149.643 404.14 149.033C403.364 148.424 402.474 147.977 401.522 147.718C400.571 147.459 399.577 147.393 398.6 147.525C397.623 147.657 396.683 147.983 395.833 148.485C394.984 148.987 394.243 149.654 393.655 150.447C393.066 151.24 392.641 152.144 392.406 153.104C392.171 154.064 392.129 155.062 392.284 156.039Z" fill="black"/>
<path d="M392.505 184.374C392.505 184.374 395.86 149.698 415.833 131.259C424.258 123.574 429.973 113.357 432.12 102.14C433.098 96.8074 433.585 91.396 433.576 85.974" stroke="#9AB1F3" stroke-width="2" stroke-miterlimit="10"/>
<path d="M446.096 74.2739C444.585 78.0729 433.284 86.3176 433.284 86.3176C433.284 86.3176 430.856 72.531 432.382 68.732C433.117 66.9078 434.544 65.4511 436.349 64.6823C438.155 63.9134 440.19 63.8955 442.009 64.6324C443.828 65.3693 445.28 66.8007 446.046 68.6117C446.813 70.4227 446.831 72.4649 446.096 74.2891V74.2739Z" fill="#587EEC"/>
<path d="M448.972 99.897C445.633 102.251 431.697 103.024 431.697 103.024C431.697 103.024 437.126 90.1216 440.465 87.7674C441.257 87.1729 442.16 86.7439 443.12 86.5056C444.08 86.2674 445.078 86.2249 446.055 86.3805C447.032 86.5362 447.968 86.8869 448.807 87.4118C449.646 87.9368 450.372 88.6253 450.941 89.4367C451.511 90.2481 451.912 91.1658 452.121 92.1355C452.33 93.1052 452.344 94.1071 452.16 95.082C451.976 96.057 451.599 96.985 451.052 97.8112C450.504 98.6373 449.797 99.3449 448.972 99.8919V99.897Z" fill="#587EEC"/>
<path d="M434.034 135.654C429.965 135.998 417.546 129.592 417.546 129.592C417.546 129.592 428.726 121.206 432.795 120.862C434.75 120.697 436.689 121.318 438.187 122.588C439.685 123.857 440.619 125.672 440.783 127.632C440.947 129.592 440.329 131.537 439.063 133.04C437.797 134.543 435.988 135.479 434.034 135.644V135.654Z" fill="#587EEC"/>
<path d="M416.654 160.151C412.701 161.161 399.385 156.983 399.385 156.983C399.385 156.983 408.989 146.824 412.942 145.793C414.84 145.3 416.856 145.582 418.546 146.579C420.237 147.577 421.463 149.206 421.955 151.11C422.447 153.014 422.165 155.036 421.171 156.732C420.177 158.427 418.552 159.657 416.654 160.151Z" fill="#587EEC"/>
<path d="M417.007 97.9368C418.659 101.68 430.212 109.556 430.212 109.556C430.212 109.556 432.176 95.6938 430.524 91.9504C429.701 90.199 428.228 88.8399 426.419 88.1637C424.61 87.4874 422.61 87.5476 420.844 88.3313C419.079 89.115 417.69 90.5601 416.973 92.3578C416.256 94.1555 416.268 96.1632 417.007 97.952V97.9368Z" fill="#587EEC"/>
<path d="M397.043 126.844C399.737 129.92 413.104 133.952 413.104 133.952C413.104 133.952 410.847 120.135 408.153 117.058C407.517 116.311 406.739 115.698 405.865 115.254C404.991 114.811 404.037 114.546 403.06 114.476C402.083 114.405 401.102 114.53 400.173 114.843C399.245 115.157 398.388 115.652 397.652 116.3C396.915 116.949 396.315 117.737 395.886 118.62C395.456 119.503 395.205 120.463 395.149 121.444C395.092 122.425 395.23 123.408 395.556 124.335C395.881 125.262 396.386 126.114 397.043 126.844Z" fill="#587EEC"/>
<path d="M381.486 157.62C383.621 161.106 396.116 167.345 396.116 167.345C396.116 167.345 396.222 153.346 394.102 149.855C393.046 148.243 391.407 147.107 389.53 146.688C387.654 146.269 385.688 146.599 384.05 147.609C382.413 148.619 381.232 150.229 380.758 152.098C380.284 153.967 380.554 155.947 381.511 157.62H381.486Z" fill="#587EEC"/>
<path d="M366.82 48.575C367.656 45.4984 368.664 42.4067 369.369 39.2897C368.523 42.4067 367.51 45.5085 366.82 48.575Z" fill="url(#paint0_linear_4_6)"/>
<path d="M363.073 78.2093C363.003 78.0881 362.953 77.9668 362.897 77.8557C362.897 77.8052 362.847 77.7648 362.827 77.7142C362.717 77.7662 362.604 77.8117 362.489 77.8507C362.268 77.9365 362.041 78.0174 361.809 78.083C361.578 78.1487 361.482 78.1841 361.306 78.2245C361.16 78.275 361.01 78.3139 360.858 78.3407L360.898 78.4316C361.084 78.3912 361.265 78.3558 361.452 78.3053L361.502 78.9318C361.714 78.9318 361.91 78.9014 362.102 78.9014C362.192 78.8964 362.283 78.8964 362.373 78.9014C362.766 78.9014 363.109 78.9014 363.381 78.9014C363.275 78.6741 363.164 78.4367 363.073 78.2093ZM465.309 241.451C462.942 238.253 458.218 203.93 458.218 203.93C458.218 203.93 448.926 179.525 451.46 169.785C453.993 160.045 444.54 135.124 444.54 135.124C444.54 135.124 438.295 132.401 437.958 128.359C437.958 128.359 412.459 120.276 411.265 114.214C410.298 109.243 394.485 105.676 388.804 104.55C387.071 97.5378 385.329 90.9956 384.044 87.424C383.697 86.3125 383.37 85.3527 383.067 84.5949C380.897 79.0378 374.188 78.5327 369.323 78.9772C369.113 78.0301 368.721 77.1329 368.17 76.3351C368.09 76.0608 367.93 75.8165 367.712 75.6329C367.607 75.5436 367.496 75.4625 367.379 75.3904C367.291 75.2267 367.176 75.0796 367.037 74.9559C366.899 74.831 366.747 74.7226 366.584 74.6326C366.467 74.5691 366.346 74.5134 366.221 74.4659C365.929 74.3544 365.627 74.2715 365.32 74.2184C364.961 74.1444 364.597 74.0971 364.232 74.0769C365.121 73.6869 365.913 73.1057 366.554 72.3744C366.989 71.861 367.313 71.2623 367.505 70.6164C367.665 70.0792 367.736 69.5195 367.717 68.9594C367.586 69.1902 367.435 69.4084 367.264 69.611C367.475 67.3731 366.297 65.0997 365.622 62.8718C364.804 59.9715 364.653 56.9229 365.179 53.9553C365.853 49.4793 367.526 44.9529 368.659 40.3961C368.662 40.3709 368.662 40.3455 368.659 40.3203C369.253 38.0573 369.621 35.7405 369.757 33.4043C369.953 28.6909 368.749 23.9876 366.815 19.6935C365.098 15.8894 362.565 12.146 358.687 10.6001C355.806 9.43313 352.578 9.62005 349.476 9.42807C342.515 8.99361 335.878 6.5384 329.26 4.30548C322.642 2.07255 315.833 0.041693 308.868 0.430687C301.903 0.819681 294.737 4.18928 291.559 10.3728C290.551 12.3026 289.972 14.4496 288.769 16.2633C286.512 19.6834 282.473 21.396 279.104 23.7552C275.735 26.1144 272.768 29.4638 271.55 33.4598C270.884 35.6127 270.79 37.9026 271.278 40.1031C271.387 40.6 271.529 41.0893 271.701 41.5681C272.179 42.9029 272.924 44.1254 273.891 45.16C274.621 45.9246 275.459 46.5767 276.379 47.0948C277.535 47.7373 278.771 48.2199 280.056 48.5296C280.011 48.6811 279.965 48.8428 279.915 48.9994C279.834 49.257 279.764 49.5046 279.688 49.7824C279.522 50.4038 279.366 51.0353 279.235 51.6718C279.23 51.7172 279.23 51.7629 279.235 51.8082C278.616 54.6817 278.306 57.6133 278.308 60.553C278.307 61.9433 278.378 63.3328 278.52 64.7158C280.534 85.2163 297.406 101.387 318.251 102.438C318.966 102.473 319.686 102.494 320.416 102.494C320.749 102.494 321.076 102.494 321.424 102.494C321.751 102.928 322.073 103.373 322.381 103.807C322.688 104.242 322.97 104.686 323.237 105.121L322.506 104.363L321.776 103.691C321.578 103.964 321.357 104.219 321.116 104.454C320.64 104.286 320.154 104.147 319.661 104.04C317.571 103.575 314.388 103.403 310.198 104.671C306.345 105.828 301.636 108.207 296.127 112.729L269.278 128.895L254.754 137.756L249.521 150.588C249.521 150.588 245.588 165.834 241.211 183.303C241.04 183.354 240.874 183.404 240.708 183.465C240.353 183.425 239.997 183.404 239.64 183.404C237.101 183.399 234.658 184.38 232.825 186.142C230.992 187.905 229.911 190.311 229.809 192.857C221.107 203.465 220.613 214.074 222.658 218.944C222.843 219.401 223.076 219.836 223.353 220.243C224.692 222.183 227.195 227.184 229.734 232.514C229.668 232.953 229.628 233.322 229.608 233.6C229.603 233.691 229.603 233.782 229.608 233.873C229.608 233.873 231.119 256.763 226.082 263.325C224.979 264.755 225.146 266.634 226.082 268.715C229.457 276.202 242.798 286.2 242.798 286.2C242.798 286.2 258.798 286.114 267.712 285.139C267.687 286.038 267.667 286.933 267.647 287.806C267.445 296.637 267.445 304.038 267.445 304.038L267.113 313.298C267.113 313.298 264.091 332.814 262.58 338.194C261.628 341.569 262.726 372.814 263.683 395.785H421.328C423.181 382.196 420.567 340.907 420.567 340.907C420.567 340.907 418.084 330.232 417.994 320.927C417.989 320.916 417.986 320.905 417.986 320.894C417.986 320.882 417.989 320.871 417.994 320.861C417.994 320.048 417.994 319.254 418.024 318.476L419.167 318.436L421.222 318.365H421.408C421.408 318.365 421.459 318.173 421.575 317.86C421.846 317.08 422.217 316.338 422.678 315.652C423.554 314.354 424.924 313.081 426.984 312.995C428.122 312.95 429.884 312.025 431.874 310.661C431.887 310.664 431.901 310.664 431.914 310.661C437.268 307.029 444.344 300.325 446.061 299.224C448.423 297.708 459.734 287.604 459.734 287.604C459.734 287.604 461.421 285.462 463.219 282.881L463.285 282.79C465.521 279.557 467.898 275.692 467.314 274.475C466.307 272.292 467.989 267.074 467.989 267.074C473.242 257.43 467.676 244.648 465.309 241.451ZM367.923 86.065C367.972 86.2158 368.002 86.3718 368.014 86.5298C367.888 86.3631 367.762 86.1862 367.636 86.0246L367.515 85.8629L367.43 85.7417L367.621 85.479C367.621 85.479 367.621 85.479 367.621 85.5143C367.754 85.6781 367.857 85.8647 367.923 86.065ZM366.231 81.589C365.682 81.7002 365.249 81.8012 364.967 81.877C364.61 81.2405 364.267 80.6039 363.96 79.9573C364.767 80.4271 365.528 80.9736 366.231 81.589ZM365.284 82.3872C365.283 82.3772 365.283 82.367 365.284 82.3569L365.325 82.3872C365.531 82.5236 365.733 82.655 365.919 82.7914C366.085 82.9126 366.236 83.0288 366.387 83.1501C366.287 83.3269 366.176 83.5087 366.065 83.6553C365.889 83.3774 365.723 83.1096 365.561 82.8318C365.461 82.7207 365.37 82.5691 365.284 82.3872ZM362.263 76.1532C363.236 76.0569 364.216 76.0569 365.189 76.1532C365.325 76.1532 365.446 76.1785 365.566 76.1987C365.84 76.241 366.108 76.3104 366.367 76.4058C366.962 77.2411 367.329 78.2183 367.43 79.2399L367.158 79.2803L366.891 79.3308C366.387 79.4167 365.884 79.5026 365.491 79.5834L364.987 79.6895C364.317 79.836 363.93 79.9472 363.915 79.9522C363.849 79.8158 363.784 79.6895 363.713 79.5582C363.602 79.341 363.486 79.1187 363.386 78.9014C363.285 78.6842 363.154 78.4367 363.048 78.2093C362.978 78.0881 362.927 77.9668 362.872 77.8557C362.872 77.8052 362.822 77.7648 362.802 77.7142C362.772 77.6607 362.747 77.6049 362.726 77.5475C362.419 76.9211 362.137 76.2947 361.865 75.6783C361.835 75.6177 361.809 75.552 361.784 75.4914L362.167 75.4662V75.5975L362.263 76.1532ZM242.103 389.541C242.062 382.019 241.518 373.88 240.008 366.242C239.363 362.994 238.698 359.745 238.023 356.552C237.852 355.754 237.686 354.966 237.52 354.178L235.969 354.385H235.828C231.597 334.375 227.175 316.744 227.175 316.744C227.175 316.744 218.392 283.103 219.409 280.421C219.54 280.072 219.374 279.132 219.001 277.753C216.876 270.105 208.002 249.028 204.9 241.824C204.9 241.794 204.875 241.759 204.865 241.733C204.361 240.526 203.998 239.713 203.888 239.475L204.618 228.725L204.658 228.078L204.754 226.704L204.714 226.669L204.754 226.032C204.754 226.032 197.089 219.727 184.105 215.176C183.602 214.994 183.068 214.817 182.539 214.645C183.189 210.296 184.05 205.385 185.173 200.601C185.279 200.121 185.394 199.656 185.515 199.187C185.621 198.717 185.742 198.262 185.863 197.802C186.054 197.055 186.261 196.317 186.472 195.59C187.172 195.367 187.862 195.12 188.542 194.857L188.804 194.756C197.18 191.487 204.091 185.284 208.258 177.296C212.424 169.308 213.565 160.076 211.467 151.31C210.271 146.338 208.063 141.668 204.98 137.594C204.749 137.281 204.502 136.968 204.255 136.66C204.008 136.351 203.711 136.008 203.434 135.695C204.89 132.376 206.607 129.218 206.748 125.99C206.773 125.581 206.773 125.171 206.748 124.762V124.712C206.562 122.636 205.645 120.534 203.51 118.326C200.392 115.088 195.955 113.446 191.519 112.658C187.082 111.87 182.559 111.85 178.097 111.319C170.699 110.43 163.492 108.142 156.094 107.439C146.981 106.593 137.806 108.161 129.487 111.986C123.982 114.512 118.407 118.927 118.075 124.985C117.803 129.991 121.278 134.79 120.402 139.736C119.53 144.596 114.595 148.42 115.028 153.336C115.194 155.255 116.176 156.973 117.405 158.504C117.828 159.009 118.276 159.514 118.74 160.019C120.533 161.924 122.507 163.753 123.509 166.152C123.549 166.253 123.59 166.354 123.625 166.455C124.476 168.825 124.093 171.821 121.988 173.18C122 173.189 122.008 173.201 122.013 173.215C122.043 173.255 122.074 173.286 122.099 173.326C122.102 173.318 122.102 173.309 122.099 173.301C122.845 174.188 123.851 174.818 124.975 175.099L125.403 175.231C125.055 175.609 124.728 176.003 124.395 176.418L124.179 176.706C123.624 177.454 123.119 178.239 122.668 179.055C122.411 179.51 122.164 179.964 121.958 180.419C121.267 181.805 120.768 183.278 120.472 184.799C119.933 188.143 120.694 191.629 119.878 194.903C118.871 198.944 115.683 202.046 113.885 205.799C110.48 212.872 112.409 221.172 113.094 228.982C114.026 239.591 112.515 250.246 111.009 260.784C110.21 266.388 109.411 271.997 108.612 277.612C106.597 291.703 104.583 305.795 102.568 319.886C101.833 325.049 100.962 330.495 97.532 334.481H97.5672C97.5672 334.481 97.5672 334.511 97.532 334.521C98.5615 334.973 99.6565 335.256 100.775 335.36C105.253 335.809 109.997 333.637 114.026 331.263C117.216 329.413 120.238 327.285 123.056 324.902C122.643 326.418 122.2 328.07 121.726 329.848C121.728 329.865 121.728 329.882 121.726 329.899C116.04 351.622 106.894 391.446 106.894 391.446C106.894 391.446 106.063 393.178 104.986 395.76H247.008C245.346 393.739 243.8 391.804 242.591 390.243L242.103 389.541ZM136.946 188.679C136.981 188.618 137.006 188.562 137.041 188.507C137.041 188.669 137.041 188.825 137.041 188.977C137.041 189.128 137.041 189.265 137.041 189.406C137.041 189.548 137.041 189.532 137.041 189.603C137.041 189.674 137.041 189.603 137.041 189.603C137.041 189.81 136.996 190.017 136.961 190.225C136.961 190.225 136.961 190.25 136.961 190.27L137.464 190.457L138.049 190.699C141.5 192.067 144.995 193.304 148.534 194.413C148.897 194.529 149.264 194.64 149.632 194.746L149.708 195.372C149.798 196.014 149.884 196.666 149.964 197.317C149.964 197.317 149.964 197.348 149.964 197.368C150.191 199.171 150.413 200.97 150.609 202.728C150.609 202.728 141.362 199.192 141.478 204.562C141.473 204.658 141.473 204.754 141.478 204.85C141.468 204.977 141.468 205.106 141.478 205.234C141.564 209.417 142.868 211.897 143.13 213.17C143.115 213.223 143.087 213.271 143.05 213.312C142.826 213.799 142.749 214.342 142.828 214.873C142.819 215.776 142.89 216.679 143.04 217.57C142.768 217.737 142.501 217.904 142.234 218.076C142.032 218.202 141.841 218.343 141.645 218.485C140.409 214.186 138.793 210.006 136.815 205.996C135.43 203.137 133.874 200.157 133.889 197.019C133.889 196.817 133.889 196.61 133.914 196.403C133.97 195.494 134.143 194.596 134.428 193.731C134.543 193.402 134.669 193.079 134.81 192.761C135.139 192.004 135.508 191.266 135.913 190.548C136.175 190.073 136.452 189.603 136.719 189.128C136.805 188.987 136.885 188.84 136.966 188.699L136.946 188.679ZM363.073 78.2093C363.003 78.0881 362.953 77.9668 362.897 77.8557C362.897 77.8052 362.847 77.7648 362.827 77.7142C362.717 77.7662 362.604 77.8117 362.489 77.8507C362.268 77.9365 362.041 78.0174 361.809 78.083C361.578 78.1487 361.482 78.1841 361.306 78.2245L360.858 78.3407L360.898 78.4316C361.084 78.3912 361.265 78.3558 361.452 78.3053L361.502 78.9318C361.714 78.9318 361.91 78.9014 362.102 78.9014H362.373C362.766 78.9014 363.109 78.9014 363.381 78.9014C363.275 78.6741 363.164 78.4367 363.073 78.2093Z" fill="url(#paint1_linear_4_6)"/>
<path d="M253.031 152.411L250.01 153.75C250.01 153.75 230.313 230.508 230.313 236.712C230.313 242.915 272.078 277.435 272.078 277.435L278.595 233.312C278.595 233.312 269.238 132.128 253.031 152.411Z" fill="#E8F5FF"/>
<path d="M344.646 127.995L327.195 118.862C326.217 114.682 324.483 110.718 322.078 107.167C319.525 103.469 316.13 99.8363 311.9 97.9419C301.208 93.1325 357.125 67.8883 357.125 67.8883C358.006 70.9208 359.043 73.9055 360.233 76.8301C363.113 83.9634 367.893 93.1881 374.052 95.8151C384.523 100.286 344.646 127.995 344.646 127.995Z" fill="#FFB0B1"/>
<path opacity="0.1" d="M360.233 76.8301C357.843 85.2591 352.875 92.7223 346.029 98.1657C339.182 103.609 330.805 106.758 322.078 107.167C319.525 103.469 316.13 99.8363 311.9 97.9419C301.208 93.1325 357.125 67.8883 357.125 67.8883C358.006 70.9208 359.043 73.9055 360.233 76.8301Z" fill="black"/>
<path d="M361.804 64.0843C361.806 72.351 359.364 80.4327 354.787 87.3071C350.21 94.1816 343.703 99.54 336.09 102.705C328.476 105.869 320.098 106.698 312.015 105.086C303.932 103.474 296.507 99.4942 290.68 93.6491C284.852 87.804 280.883 80.3565 279.275 72.2486C277.667 64.1408 278.492 55.7367 281.646 48.0993C284.8 40.4619 290.141 33.9343 296.994 29.3421C303.847 24.7498 311.903 22.2993 320.144 22.3002C325.622 22.2748 331.05 23.3382 336.116 25.429C341.181 27.5198 345.784 30.5965 349.657 34.4815C353.531 38.3666 356.598 42.9828 358.683 48.0638C360.768 53.1448 361.829 58.5898 361.804 64.0843Z" fill="#FFB0B1"/>
<path d="M367.817 122.63L356.456 149.223L346.433 166.875H314.352L304.995 142.742L308.787 117.715H333.289L349.108 116.821L354.451 115.032L357.896 116.992L367.817 122.63Z" fill="#575A89"/>
<path opacity="0.1" d="M363.904 87.1814C363.904 87.1814 370.99 88.697 364.645 93.9156C358.299 99.1341 336.406 115.73 336.406 115.73C336.406 115.73 344.097 122.6 342.505 130.648L367.984 116.401L372.516 93.6074C372.516 93.6074 373.025 86.7571 363.904 87.1814Z" fill="black"/>
<path opacity="0.1" d="M341.417 115.73L325.211 118.412C325.211 118.412 328.555 130.815 326.883 134.336C326.832 134.445 326.79 134.558 326.757 134.674L320.144 152.603L325.1 166.683L342.253 143.217L336.406 134.336C336.406 134.336 342.586 126.121 346.262 123.272C349.939 120.423 341.417 115.73 341.417 115.73Z" fill="black"/>
<path d="M341.417 115.037L325.211 117.715C325.211 117.715 328.555 130.117 326.883 133.638C326.832 133.748 326.79 133.861 326.757 133.977L320.144 151.906L325.1 165.986L342.253 142.505L336.406 133.623C336.406 133.623 342.586 125.409 346.262 122.56C349.939 119.71 341.417 115.037 341.417 115.037Z" fill="#DCE6F2"/>
<path d="M364.584 85.8427C364.584 85.8427 371.67 87.3582 365.32 92.5768C358.969 97.7954 336.406 115.73 336.406 115.73C336.406 115.73 344.762 121.261 343.175 129.304L368.654 115.063L373.186 92.2686C373.186 92.2686 373.69 85.4183 364.584 85.8427Z" fill="#575A89"/>
<path opacity="0.1" d="M323.191 108.748C323.191 108.748 324.737 111.648 331.562 116.876C331.562 116.876 320.2 122.939 324.546 131.461L307.166 126.914L304.492 118.533L323.191 108.748Z" fill="black"/>
<path d="M322.521 108.081C322.521 108.081 324.067 110.981 330.891 116.21C330.891 116.21 319.53 122.241 323.876 130.789L306.501 126.243L303.827 117.867L322.521 108.081Z" fill="#575A89"/>
<path opacity="0.1" d="M367.817 122.63L356.456 149.223L346.454 166.875H314.352L304.995 142.742L308.782 117.715H315.596C315.486 123.555 317.611 130.415 317.475 132.967C317.243 137.16 323.71 159.782 323.71 159.782C323.71 159.782 337.242 137.826 342.586 135.871C345.945 134.644 353.061 124.429 357.891 116.993L367.817 122.63Z" fill="black"/>
<path d="M412.575 262.572L411.421 264.027C411.421 264.027 419.777 306.094 417.465 315.647C417.072 317.369 416.848 319.126 416.795 320.891V320.967C416.387 330.687 419.313 343.301 419.313 343.301C419.313 343.301 421.65 380.483 420.32 395.775H263.884C262.968 373.163 261.981 343.867 262.877 340.619C264.388 335.259 267.41 315.814 267.41 315.814L267.742 306.599C267.742 306.599 267.742 297.693 268.014 287.771C268.13 283.31 268.301 278.627 268.548 274.475C268.865 269.251 269.308 264.851 269.918 262.689C270.293 261.05 270.509 259.378 270.562 257.697C270.562 257.541 270.562 257.379 270.593 257.217C270.593 256.712 270.643 256.167 270.663 255.606C270.663 255.449 270.663 255.293 270.663 255.101C270.759 251.847 270.724 247.988 270.618 243.987C270.618 243.769 270.618 243.547 270.618 243.325C270.532 240.324 270.406 237.262 270.265 234.353C269.827 225.259 269.258 217.57 269.258 217.57L250.045 153.715L255.222 140.923L269.59 132.093L296.157 116.002C309.115 105.318 317.646 106.601 320.9 107.773C321.216 107.881 321.525 108.008 321.826 108.152C321.927 108.202 322.008 108.243 322.083 108.288C322.187 108.337 322.286 108.395 322.38 108.46C321.49 108.89 320.715 109.529 320.124 110.324C319.458 111.228 318.983 112.26 318.729 113.355C318.559 114.034 318.439 114.725 318.372 115.421C318.306 116.154 318.281 116.912 318.281 117.675C318.317 119.347 318.46 121.016 318.709 122.671C318.709 122.701 318.709 122.742 318.709 122.782C318.875 123.964 319.082 125.121 319.283 126.207C319.281 126.226 319.281 126.244 319.283 126.263C319.515 127.531 319.746 128.703 319.903 129.713C319.933 129.895 319.958 130.062 319.983 130.218C320.094 130.886 320.146 131.562 320.139 132.239C320.196 133.874 320.415 135.498 320.794 137.089C320.925 137.756 321.076 138.468 321.242 139.211C321.469 140.221 321.716 141.322 321.983 142.444C322.129 143.06 322.285 143.697 322.446 144.328C322.506 144.581 322.572 144.833 322.632 145.091L322.733 145.49C323.806 149.769 324.969 154.028 325.684 156.604C326.107 158.12 326.374 159.054 326.374 159.054C326.374 159.054 333.959 146.753 340.012 139.751C340.103 139.65 340.184 139.554 340.269 139.463C340.868 138.771 341.458 138.14 342.022 137.584C343.256 136.351 344.364 135.472 345.255 135.149C345.445 135.079 345.629 134.993 345.804 134.891C348.282 133.482 352.281 128.364 356.023 123.004C356.39 122.499 356.748 121.948 357.11 121.428C357.941 120.226 358.747 119.018 359.508 117.861C360.092 116.977 360.651 116.119 361.18 115.3C363.698 111.37 365.471 108.44 365.471 108.44L368.966 108.283L369.575 108.253H369.983L385.852 107.515C385.852 107.515 386.537 107.631 387.665 107.859C387.726 107.859 387.786 107.859 387.852 107.899C393.482 109.021 409.125 112.572 410.082 117.498C411.25 123.53 436.482 131.577 436.482 131.577C436.814 135.619 442.994 138.281 442.994 138.281C442.994 138.281 452.351 163.086 449.848 172.806C447.375 182.404 456.284 206.148 456.521 206.815L454.814 208.977L412.575 262.572Z" fill="#E8F5FF"/>
<path opacity="0.1" d="M363.899 85.4183C363.899 85.4183 379.345 81.0232 382.856 90.0711C386.366 99.119 394.218 135.659 394.218 135.659C394.218 135.659 373.831 139.514 368.487 135.659C365.353 133.372 361.474 132.354 357.624 132.81L346.096 140.686L342.692 139.675C342.692 139.675 361.134 112.173 365.143 102.827C369.152 93.4811 370.507 89.3032 363.899 85.4183Z" fill="black"/>
<path d="M363.23 83.3976C363.23 83.3976 378.686 79.0025 382.211 88.0504C385.737 97.0983 393.573 133.638 393.573 133.638C393.573 133.638 373.191 137.493 367.843 133.638C364.71 131.351 360.833 130.333 356.985 130.789L345.447 138.665L342.042 137.655C342.042 137.655 360.485 110.152 364.494 100.806C368.502 91.4604 369.837 87.2926 363.23 83.3976Z" fill="#E8F5FF"/>
<path opacity="0.1" d="M259.548 229.169C259.548 229.169 271.076 232.019 273.252 238.556C275.428 245.093 264.731 245.26 264.731 245.26C264.731 245.26 258.214 233.696 259.548 229.169Z" fill="black"/>
<path opacity="0.1" d="M302.487 277.435C302.487 277.435 274.254 335.426 280.771 340.957C287.288 346.489 302.487 277.435 302.487 277.435Z" fill="black"/>
<path opacity="0.1" d="M341.417 234.701C341.417 234.701 363.975 291.03 359.462 299.729C354.95 308.428 369.152 299.729 369.152 299.729L341.417 234.701Z" fill="black"/>
<path d="M372.829 290.343C372.829 290.343 296.64 294.03 318.865 317.83C341.09 341.629 386.699 318.84 386.699 318.84L372.829 290.343Z" fill="#FFB0B1"/>
<path opacity="0.1" d="M361.804 64.0842C361.811 69.5656 360.738 74.9943 358.647 80.0582C357.947 80.1391 357.247 80.1896 356.572 80.2199C355.565 78.0021 356.103 75.4408 356.124 73.0008C356.144 70.5607 355.247 67.6912 352.905 67.0345C348.237 65.716 345.014 74.4709 340.41 72.8896C336.885 71.6873 337.807 66.3222 335.777 63.2254C334.171 60.7752 330.952 60.0831 328.449 58.5474C323.126 55.2687 323.287 50.0248 320.814 45.0639C318.226 39.8655 312.756 41.4013 308.007 44.4678C304.401 46.8018 301.289 49.9289 297.431 51.788C294.092 53.4046 290.34 53.9906 286.638 54.0765C284.359 54.165 282.08 53.9234 279.87 53.3591C282.469 43.5554 288.535 35.0348 296.935 29.3863C305.336 23.7378 315.498 21.347 325.526 22.6597C335.554 23.9725 344.764 28.8992 351.438 36.5211C358.112 44.1429 361.795 53.9396 361.799 64.0842H361.804Z" fill="black"/>
<path d="M308.022 43.1291C304.411 45.4631 301.304 48.5851 297.446 50.4543C294.107 52.0659 290.355 52.6519 286.653 52.7378C282.121 52.8388 277.241 52.0406 274.143 48.7569C271.298 45.7258 270.618 41.0629 271.822 37.0871C273.025 33.1112 275.911 29.8124 279.3 27.4228C282.69 25.0333 286.623 23.3813 288.869 19.9612C290.058 18.1527 290.632 16.0208 291.619 14.096C294.777 7.93776 301.878 4.60353 308.742 4.18927C315.607 3.77502 322.411 5.82608 328.948 8.0489C335.485 10.2717 342.072 12.7168 348.972 13.1766C352.044 13.3685 355.237 13.1766 358.088 14.3435C361.92 15.9046 364.433 19.6379 366.146 23.4369C368.064 27.7209 369.258 32.3989 369.057 37.077C368.634 47.0645 362.056 56.8652 364.947 66.4334C365.713 68.9846 367.148 71.6015 366.382 74.1527C365.264 77.8759 360.475 78.7246 356.602 78.9014C355.595 76.6837 356.134 74.1173 356.154 71.6823C356.174 69.2473 355.277 66.3728 352.941 65.716C348.267 64.4076 345.044 73.1473 340.451 71.5712C336.951 70.3638 337.857 65.0037 335.822 61.9069C334.216 59.4517 330.993 58.7647 328.495 57.2289C323.171 53.9502 323.332 48.7064 320.86 43.7454C318.251 38.5218 312.776 40.0576 308.022 43.1291Z" fill="#575A89"/>
<path d="M234.145 235.368L230.303 236.712C230.303 236.712 231.813 259.506 226.777 266.043C221.741 272.58 243.316 288.832 243.316 288.832C243.316 288.832 272.889 288.665 273.725 286.306C274.561 283.947 272.214 244.072 272.214 244.072C272.214 244.072 256.34 237.869 257.675 227.982C257.675 227.982 252.83 251.276 245.648 250.271C238.466 249.266 230.313 243.249 234.145 235.368Z" fill="#E8F5FF"/>
<path opacity="0.1" d="M246.963 257.323C252.562 257.323 257.101 253.159 257.101 248.023C257.101 242.886 252.562 238.722 246.963 238.722C241.364 238.722 236.825 242.886 236.825 248.023C236.825 253.159 241.364 257.323 246.963 257.323Z" fill="black"/>
<path d="M258.048 236.04C258.048 236.04 256.033 174.367 238.497 188.108C220.961 201.849 220.789 218.283 224.128 223.137C227.467 227.992 238.174 252.297 238.174 252.297C239.849 253.27 241.73 253.832 243.663 253.936C245.596 254.04 247.526 253.683 249.295 252.894C251.064 252.106 252.622 250.908 253.84 249.399C255.058 247.89 255.903 246.113 256.305 244.214L258.048 236.04Z" fill="#FFB0B1"/>
<path opacity="0.1" d="M367.44 79.8208C367.358 79.5498 367.201 79.308 366.986 79.1237C366.12 78.3305 364.257 78.0527 361.447 78.2951L361.562 79.6288C365.309 79.3055 366.05 80.0532 366.145 80.1795V80.3058L366.261 80.4725C366.728 81.1023 367.059 81.8231 367.233 82.5886C367.406 83.3542 367.418 84.1476 367.268 84.9182C366.448 89.0354 361.406 92.3141 361.356 92.3495L361.235 92.4202L361.159 92.5364C358.984 95.7746 346.68 104.913 343.462 107.278L343.18 106.954C341.74 108.207 329.079 119.326 328.394 123.585C327.95 126.258 324.949 127.293 323.861 127.581C322.713 126.707 318.986 123.732 317.047 120.397C315.229 117.26 322.547 111.137 323.191 108.748L322.184 107.712C322.078 108.096 312.681 116.907 315.294 121.408C317.389 125.02 321.217 128.112 322.557 129.132C322.129 133.032 319.464 155.932 315.37 161.358C310.283 168.102 306.007 202.091 306.481 213.958C306.899 224.501 304.154 244.416 294.988 252.969C293.401 254.514 291.487 255.681 289.388 256.38C287.289 257.08 285.059 257.295 282.866 257.01H282.755H282.644C282.513 257.01 269.218 258.374 258.047 248.927C248.906 241.213 243.729 228.624 242.651 211.498H242.43L242.339 206.512C244.818 206.124 247.05 204.787 248.566 202.783C250.083 200.779 250.766 198.263 250.472 195.764C250.178 193.265 248.931 190.978 246.991 189.383C245.051 187.787 242.57 187.008 240.07 187.209C237.569 187.41 235.244 188.576 233.582 190.461C231.92 192.345 231.052 194.803 231.158 197.317C231.265 199.831 232.339 202.205 234.154 203.942C235.97 205.678 238.385 206.641 240.894 206.628H241.005L241.095 211.584L240.652 211.614C241.76 229.296 247.199 242.375 256.768 250.453C264.041 256.498 273.331 259.548 282.76 258.986C283.429 259.059 284.102 259.096 284.775 259.097C289.097 259.119 293.255 257.441 296.358 254.424C306.013 245.406 308.949 224.759 308.49 213.857C307.987 201.283 312.474 168.517 316.976 162.55C321.388 156.695 324.062 133.881 324.531 129.461C326.127 129.011 329.738 127.591 330.353 123.903C330.796 121.236 339.252 113.017 344.454 108.465L344.298 108.283C347.098 106.232 355.806 99.7656 360.122 95.613C361.462 94.3247 362.791 93.0365 364.181 91.8089C365.853 90.3237 367.979 87.9644 368.538 85.1758C368.728 84.2553 368.729 83.3054 368.54 82.3845C368.351 81.4636 367.977 80.5912 367.44 79.8208Z" fill="black"/>
<path d="M322.386 128.814C322.174 128.667 317.158 125.065 314.645 120.731C312.036 116.23 321.434 107.424 321.534 107.04L322.542 108.076C321.902 110.46 314.584 116.588 316.403 119.72C318.694 123.676 323.519 127.137 323.569 127.172L322.386 128.814Z" fill="#353146"/>
<path d="M342.808 108.258L342.022 107.172C342.183 107.056 358.002 95.5777 360.495 91.8646L360.576 91.7535L360.691 91.6777C360.742 91.6423 365.783 88.3687 366.604 84.2464C366.755 83.4767 366.744 82.6838 366.57 81.9188C366.397 81.1539 366.065 80.434 365.597 79.8058L365.481 79.634V79.5128C365.38 79.3814 364.64 78.6388 360.893 78.9621L360.777 77.6234C363.592 77.3809 365.451 77.6588 366.317 78.4519C366.533 78.638 366.691 78.8814 366.775 79.1541C367.32 79.9222 367.702 80.7941 367.897 81.7159C368.093 82.6378 368.099 83.5901 367.913 84.5141C367.354 87.3078 365.234 89.6671 363.557 91.1473C362.172 92.3749 360.837 93.6732 359.503 94.9513C354.441 99.8163 343.362 107.859 342.808 108.258Z" fill="#E8F5FF"/>
<path d="M241.689 204.753L240.355 204.777L240.504 212.915L241.838 212.89L241.689 204.753Z" fill="#E8F5FF"/>
<path d="M240.244 205.986C245.626 205.986 249.989 201.61 249.989 196.211C249.989 190.812 245.626 186.436 240.244 186.436C234.862 186.436 230.499 190.812 230.499 196.211C230.499 201.61 234.862 205.986 240.244 205.986Z" fill="#587EEC"/>
<path d="M240.244 204.329C244.714 204.329 248.337 200.695 248.337 196.211C248.337 191.727 244.714 188.093 240.244 188.093C235.774 188.093 232.151 191.727 232.151 196.211C232.151 200.695 235.774 204.329 240.244 204.329Z" fill="#E8F5FF"/>
<path d="M284.14 258.445C283.467 258.446 282.795 258.411 282.126 258.339C272.698 258.896 263.409 255.847 256.134 249.806C246.565 241.723 241.136 228.659 240.018 210.962L242.032 210.836C243.11 227.962 248.287 240.556 257.433 248.265C268.603 257.687 281.894 256.348 282.025 256.348H282.136H282.247C284.441 256.632 286.671 256.416 288.77 255.717C290.87 255.017 292.785 253.851 294.374 252.307C303.535 243.754 306.28 223.84 305.862 213.296C305.358 201.419 309.634 167.43 314.725 160.691C319.182 154.786 321.947 128.167 321.978 127.9L322.053 127.142L322.798 127.01C322.844 127.01 327.195 126.182 327.739 122.918C328.444 118.665 341.085 107.546 342.52 106.288L343.835 107.803C338.612 112.35 330.156 120.574 329.733 123.247C329.119 126.945 325.508 128.359 323.917 128.804C323.413 133.229 320.759 156.038 316.362 161.894C311.86 167.86 307.372 200.626 307.876 213.2C308.309 224.102 305.403 244.754 295.749 253.767C292.64 256.792 288.471 258.472 284.14 258.445Z" fill="#353146"/>
<g opacity="0.1">
<path opacity="0.1" d="M366.095 52.1417C366.921 49.0802 367.918 45.9986 368.613 42.8967C367.782 46.0137 366.78 49.0802 366.095 52.1417Z" fill="black"/>
<path opacity="0.1" d="M357.669 76.1987C356.662 73.9809 357.201 71.4146 357.221 68.9796C357.241 66.5446 356.345 63.6953 354.008 63.0133C349.334 61.7048 346.111 70.4496 341.518 68.8684C337.993 67.661 338.925 62.301 336.89 59.2042C335.283 56.749 332.065 56.0619 329.567 54.5261C324.239 51.2475 324.4 46.0036 321.932 41.0427C319.339 35.8393 313.874 37.375 309.12 40.4466C305.509 42.7805 302.402 45.9076 298.544 47.7718C295.205 49.3833 291.453 49.9693 287.751 50.0552C283.244 50.1613 278.338 49.3581 275.241 46.0744C272.854 43.5484 271.993 39.8454 272.486 36.3748C272.401 36.6122 272.325 36.8496 272.25 37.0871C271.041 41.0629 271.746 45.7359 274.571 48.7569C277.669 52.0406 282.574 52.8388 287.081 52.7378C290.788 52.6519 294.535 52.0659 297.879 50.4543C301.747 48.5851 304.854 45.4631 308.455 43.1291C313.209 40.0576 318.679 38.5218 321.267 43.7252C323.735 48.6862 323.579 53.93 328.902 57.2087C331.421 58.7242 334.619 59.4315 336.23 61.8867C338.245 64.9936 337.353 70.3436 340.858 71.551C345.446 73.1271 348.67 64.3874 353.343 65.6958C355.68 66.3526 356.582 69.2321 356.556 71.6621C356.531 74.092 356.007 76.6634 357.005 78.8812C360.878 78.7044 365.667 77.8708 366.79 74.1325C366.945 73.596 367.016 73.0388 367.002 72.4805C365.365 75.3146 361.155 76.0421 357.669 76.1987Z" fill="black"/>
</g>
<path opacity="0.1" d="M448.69 200.677L454.537 206.881C454.537 206.881 459.216 241.067 461.553 244.264C463.889 247.462 469.409 260.183 464.227 269.736C464.227 269.736 462.555 274.934 463.557 277.112C464.559 279.289 456.043 290.186 456.043 290.186C456.043 290.186 444.847 300.239 442.505 301.75C440.164 303.26 427.805 315.324 423.63 315.491C419.454 315.658 418.09 320.856 418.09 320.856L394.53 321.695C394.53 321.695 381.516 321.013 378.686 322.856C378.686 322.856 380.197 302.912 365.657 289.837L384.201 283.134C384.201 283.134 391.221 280.102 393.392 276.935C394.757 274.993 396.695 273.529 398.932 272.747C398.932 272.747 404.109 269.059 404.275 267.048C404.441 265.038 410.606 262.572 410.606 262.572L407.116 232.691L408.954 183.081C408.954 183.081 414.801 141.514 427.165 143.864C439.529 146.213 448.69 200.677 448.69 200.677Z" fill="black"/>
<path d="M450.704 200.677L456.551 206.881C456.551 206.881 461.23 241.067 463.567 244.264C465.903 247.462 471.423 260.183 466.241 269.736C466.241 269.736 464.574 274.934 465.576 277.112C466.578 279.289 458.057 290.186 458.057 290.186C458.057 290.186 446.861 300.239 444.52 301.75C442.178 303.26 429.819 315.324 425.644 315.491C421.469 315.658 420.104 320.856 420.104 320.856L396.544 321.695C396.544 321.695 383.52 321.013 380.7 322.856C380.7 322.856 382.211 302.912 367.671 289.837L386.215 283.134C386.215 283.134 393.235 280.102 395.406 276.935C396.772 274.993 398.709 273.529 400.946 272.747C400.946 272.747 406.123 269.059 406.289 267.048C406.456 265.038 412.62 262.572 412.62 262.572L409.13 232.691L410.968 183.081C410.968 183.081 416.815 141.514 429.179 143.864C441.543 146.213 450.704 200.677 450.704 200.677Z" fill="#E8F5FF"/>
<path opacity="0.1" d="M428.968 250.792C428.968 250.792 446.177 246.245 450.689 251.802C455.202 257.359 428.968 250.792 428.968 250.792Z" fill="black"/>
<path opacity="0.1" d="M424.959 258.415C430.806 262.522 448.851 262.689 448.851 262.689L424.959 258.415Z" fill="black"/>
<path opacity="0.1" d="M433.812 278.946C434.316 279.112 446.217 291.853 451.213 287.999C456.209 284.144 433.812 278.946 433.812 278.946Z" fill="black"/>
<path opacity="0.1" d="M273.539 172.018C273.539 172.018 277.034 196.155 275.312 205.986C273.589 215.817 279.874 227.997 279.874 227.997L273.539 172.018Z" fill="black"/>
<path d="M196.162 181.833C192.133 185.001 189.192 192.498 187.061 200.737C183.345 215.11 182.131 231.776 182.131 231.776C182.131 231.776 150.05 224.4 152.387 221.051C153.857 218.944 151.883 203.071 150.236 191.563C149.254 184.763 148.378 179.484 148.378 179.484C148.378 179.484 207.191 173.114 196.162 181.833Z" fill="#FFB0B1"/>
<path opacity="0.1" d="M196.162 181.161C192.133 184.334 189.192 191.826 187.061 200.066C180.67 202.012 173.872 202.188 167.389 200.574C160.905 198.959 154.979 195.616 150.236 190.896C149.254 184.092 148.378 178.812 148.378 178.812C148.378 178.812 207.191 172.447 196.162 181.161Z" fill="black"/>
<path d="M213.406 163.106C213.409 171.893 210.314 180.398 204.667 187.115C199.02 193.832 191.186 198.329 182.552 199.81C173.917 201.291 165.039 199.66 157.488 195.205C149.938 190.751 144.201 183.761 141.294 175.472C138.388 167.183 138.498 158.13 141.605 149.915C144.713 141.699 150.618 134.852 158.275 130.584C165.932 126.316 174.847 124.903 183.443 126.594C192.038 128.286 199.76 132.973 205.242 139.827C210.525 146.429 213.404 154.641 213.406 163.106Z" fill="#FFB0B1"/>
<path opacity="0.1" d="M242.656 395.775H232.08L231.189 377.038L230.257 357.644C230.257 357.644 232.659 357.285 236.487 356.749L238.033 356.542H238.159C238.995 360.478 239.821 364.519 240.617 368.556C241.941 375.721 242.63 382.991 242.676 390.279C242.676 390.784 242.676 391.289 242.676 391.764C242.707 393.113 242.676 394.462 242.656 395.775Z" fill="black"/>
<path d="M240.627 395.775H107.992C108.566 394.467 108.949 393.674 108.949 393.674C108.949 393.674 119.56 347.105 124.954 327.403C124.956 327.386 124.956 327.369 124.954 327.353C125.628 324.676 126.442 322.037 127.392 319.446C127.453 319.27 127.533 319.101 127.629 318.941C130.298 314.586 133.642 309.893 128.963 303.189C124.284 296.486 125.941 266.988 125.941 266.988C125.941 266.988 131.622 241.845 137.636 228.437C138.548 226.36 139.843 224.475 141.453 222.88C141.976 222.366 142.535 221.89 143.125 221.455C143.574 221.117 144.041 220.805 144.525 220.521L144.621 220.46C147.147 219.023 149.952 218.15 152.845 217.899C154.9 217.683 156.975 217.741 159.014 218.07C168.765 219.505 176.571 221.905 182.776 224.638C199.592 232.049 204.683 241.981 204.784 242.188L204.824 242.274C205.499 243.855 215.37 266.973 218.926 277.758C219.847 280.567 220.351 282.542 220.15 283.083C219.142 285.76 227.835 319.28 227.835 319.28C227.835 319.28 231.864 335.446 235.893 354.395C236.069 355.183 236.235 355.971 236.396 356.77C237.117 360.21 237.832 363.716 238.522 367.217C239.859 374.432 240.548 381.753 240.582 389.091C240.656 391.378 240.671 393.606 240.627 395.775Z" fill="#EB5569"/>
<path opacity="0.1" d="M152.055 206.37C152.055 206.37 142.904 202.834 143.014 208.199C143.125 213.564 145.245 216.131 144.576 216.914C143.906 217.697 144.908 222.39 144.908 222.39C144.908 222.39 157.272 222.39 162.953 224.956C168.634 227.522 189.575 232.665 192.249 234.231C194.923 235.797 204.839 242.82 204.839 242.82L205.731 229.523C205.731 229.523 195.482 221.031 178.666 216.676C161.85 212.321 152.055 206.37 152.055 206.37Z" fill="black"/>
<path d="M152.055 205.698C152.055 205.698 142.904 202.162 143.014 207.527C143.125 212.892 145.245 215.459 144.576 216.242C143.906 217.025 144.908 221.718 144.908 221.718C144.908 221.718 157.272 221.718 162.953 224.289C168.634 226.861 189.575 231.998 192.249 233.559C194.923 235.121 204.839 242.148 204.839 242.148L205.741 228.892C205.741 228.892 195.492 220.399 178.676 216.045C161.86 211.69 152.055 205.698 152.055 205.698Z" fill="#EB5569"/>
<path opacity="0.1" d="M179.678 237.697C179.678 237.697 197.164 256.687 196.273 261.946C195.381 267.205 179.678 237.697 179.678 237.697Z" fill="black"/>
<path opacity="0.1" d="M151.274 306.296C151.274 306.296 138.457 318.143 134.679 318.815C130.902 319.487 137.575 321.72 141.916 319.936C146.258 318.153 155.514 313.46 155.514 313.46L151.274 306.296Z" fill="black"/>
<path d="M245.834 395.775H215.944C211.764 392.138 207.81 388.768 205.292 386.742C201.263 383.499 198.357 378.725 196.504 374.886C196.086 374.012 195.723 373.193 195.416 372.451C194.866 371.171 194.382 369.865 193.966 368.535L216.1 355.35C217.323 356.394 218.473 357.521 219.54 358.725L219.807 359.033C221.036 360.488 222.118 362.14 222.214 363.494C222.325 365.07 226.696 371.167 231.164 377.023C235.696 382.979 240.34 388.672 240.647 389.056C240.647 389.056 241.412 390.102 242.661 391.708C243.543 392.87 244.631 394.265 245.834 395.775Z" fill="#FFB0B1"/>
<path opacity="0.1" d="M205.242 139.827C204.18 142.232 203.228 144.727 203.087 147.405C202.689 155.134 203.334 172.417 194.802 176.297C190.577 178.206 186.054 174.013 181.421 173.912C178.087 173.841 175.03 175.963 172.995 178.615C170.96 181.268 169.696 184.415 168.221 187.416C166.878 190.139 165.33 192.757 163.592 195.246C163.073 196.008 162.501 196.732 161.88 197.413C156.678 195.211 152.046 191.847 148.336 187.578C144.626 183.308 141.937 178.245 140.473 172.775C139.01 167.304 138.81 161.571 139.89 156.012C140.97 150.453 143.301 145.214 146.704 140.695C150.108 136.176 154.496 132.496 159.532 129.936C164.568 127.376 170.121 126.002 175.767 125.92C181.412 125.839 187.002 127.051 192.11 129.464C197.218 131.878 201.71 135.429 205.242 139.847V139.827Z" fill="black"/>
<path d="M202.417 146.041C202.014 153.77 202.664 171.053 194.127 174.927C189.902 176.837 185.379 172.649 180.746 172.548C177.412 172.472 174.36 174.599 172.32 177.246C170.281 179.893 169.027 183.046 167.546 186.052C166.202 188.775 164.655 191.393 162.918 193.882C161.88 195.357 160.732 196.837 159.135 197.666C156.355 199.121 152.986 198.302 150.005 197.368C146.137 196.145 142.326 194.768 138.572 193.235C138.658 192.667 138.702 192.093 138.703 191.518C138.592 191.73 138.472 191.927 138.351 192.139L138.114 192.553C137.686 193.311 137.268 194.069 136.885 194.847C136.739 195.145 136.598 195.453 136.472 195.761C135.966 196.908 135.648 198.13 135.53 199.378C135.274 202.748 136.931 205.946 138.401 208.977C144.057 220.702 147.552 234.413 143.296 246.714C141.453 252.064 138.26 256.818 135.928 261.986C131.852 271.14 130.652 281.321 132.489 291.176C133.652 297.299 135.984 303.361 135.41 309.57C134.402 320.255 125.216 328.206 116.015 333.672C111.044 336.613 104.96 339.229 99.6824 336.906C103.047 332.965 103.913 327.514 104.638 322.371C106.622 308.344 108.612 294.31 110.606 280.269C111.402 274.682 112.196 269.094 112.988 263.507C114.469 253.009 115.97 242.395 115.043 231.832C114.368 224.047 112.464 215.782 115.829 208.734C117.606 205.001 120.774 201.909 121.761 197.888C122.572 194.62 121.817 191.144 122.351 187.815C122.643 186.3 123.137 184.832 123.821 183.45C124.692 181.575 125.828 179.836 127.195 178.287C125.846 177.893 124.587 177.352 123.821 176.221C125.987 174.806 126.314 171.618 125.332 169.224C124.35 166.829 122.386 165.005 120.618 163.116C118.85 161.227 117.148 159.024 116.927 156.448C116.498 151.542 121.384 147.743 122.245 142.904C123.116 137.978 119.671 133.189 119.948 128.203C120.271 122.176 125.79 117.796 131.24 115.255C139.463 111.436 148.546 109.868 157.569 110.708C164.912 111.405 172.018 113.683 179.341 114.568C183.758 115.073 188.235 115.123 192.621 115.901C197.008 116.679 201.405 118.321 204.492 121.549C212.63 130.062 202.88 137.069 202.417 146.041Z" fill="#575A89"/>
<path opacity="0.1" d="M195.608 374.891C193.039 373.774 188.366 374.441 180.343 371.991C172.32 369.541 170.774 358.467 170.774 358.467V358.432C170.678 358.179 169.933 356.532 164.887 350.763C159.312 344.393 147.26 312.217 147.26 312.217C147.26 312.217 136.573 300.704 136.91 296.46C137.248 292.217 135.012 280.926 135.233 268.296C135.455 255.666 159.291 247.29 159.291 247.29C205.187 239.132 194.379 292.207 193.155 296.228C191.931 300.249 198.282 311.111 198.282 311.111C197.386 315.839 201.959 323.159 201.959 323.159C201.959 323.159 203.067 329.636 203.293 332.096C203.306 332.21 203.331 332.322 203.369 332.43C204.104 334.749 210.097 336.85 212.535 338.128C215.098 339.472 223.343 351.202 223.343 351.202C225.12 359.816 198.166 376.022 195.608 374.891Z" fill="black"/>
<path d="M196.943 372.87C194.379 371.748 189.7 372.42 181.683 369.965C173.665 367.51 172.114 356.446 172.114 356.446V356.411C172.023 356.153 171.273 354.511 166.226 348.742C160.651 342.372 148.599 310.191 148.599 310.191C148.599 310.191 137.913 298.683 138.245 294.44C138.577 290.196 136.351 278.905 136.573 266.285C136.795 253.666 160.616 245.295 160.616 245.295C206.511 237.136 195.704 290.211 194.48 294.232C193.256 298.254 199.607 309.115 199.607 309.115C198.71 313.844 203.283 321.164 203.283 321.164C203.283 321.164 204.391 327.64 204.623 330.101C204.631 330.215 204.655 330.327 204.693 330.434C205.429 332.753 211.422 334.855 213.864 336.133C216.423 337.471 224.672 349.207 224.672 349.207C226.46 357.805 199.506 374.012 196.943 372.87Z" fill="#EB5569"/>
<path opacity="0.1" d="M161.522 273.005C161.522 273.005 181.572 294.222 186.804 294.222C192.037 294.222 161.522 273.005 161.522 273.005Z" fill="black"/>
<path d="M196.943 372.87C194.379 371.748 189.7 372.42 181.683 369.965C173.665 367.51 172.114 356.446 172.114 356.446V356.411C177.427 352.875 190.884 342.887 196.187 339.235C199.919 336.673 202.966 332.91 204.749 330.414C205.484 332.733 211.477 334.834 213.92 336.113C216.478 337.451 224.728 349.187 224.728 349.187C226.46 357.805 199.506 374.012 196.943 372.87Z" fill="#FF748E"/>
<g opacity="0.1">
<path opacity="0.1" d="M123.851 176.276C123.876 176.317 123.912 176.352 123.942 176.392C124.093 176.2 124.249 176.009 124.41 175.827C124.239 175.994 124.052 176.145 123.851 176.276Z" fill="black"/>
<path opacity="0.1" d="M135.535 199.434C135.747 196.63 137.243 194.16 138.643 191.695C137.726 191.341 136.81 190.982 135.903 190.608C135.989 190.042 136.033 189.469 136.034 188.896C134.619 191.422 133.078 193.907 132.861 196.752C132.604 200.126 134.261 203.319 135.732 206.35C141.393 218.07 144.883 231.781 140.627 244.088C138.779 249.432 135.591 254.191 133.259 259.359C129.184 268.512 127.986 278.692 129.824 288.544C130.978 294.672 133.314 300.729 132.74 306.938C131.733 317.623 122.552 325.574 113.346 331.035C109.584 333.268 105.187 335.314 100.982 335.168C100.592 335.796 100.158 336.396 99.6824 336.961C104.965 339.3 111.044 336.668 116.015 333.718C125.226 328.262 134.427 320.33 135.435 309.626C136.009 303.417 133.672 297.36 132.514 291.232C130.675 281.38 131.87 271.201 135.938 262.047C138.255 256.884 141.478 252.12 143.306 246.775C147.562 234.469 144.067 220.758 138.411 209.038C136.946 205.986 135.279 202.809 135.535 199.434Z" fill="black"/>
<path opacity="0.1" d="M204.482 121.61C203.986 121.1 203.454 120.627 202.89 120.195C208.994 128.137 200.181 134.886 199.743 143.434C199.35 151.163 199.994 168.451 191.458 172.321C187.238 174.235 182.71 170.042 178.082 169.941C174.743 169.87 171.691 171.997 169.651 174.645C167.611 177.292 166.357 180.444 164.882 183.445C163.535 186.168 161.987 188.786 160.248 191.275C159.241 192.755 158.063 194.231 156.461 195.064C153.691 196.514 150.322 195.701 147.335 194.761C144.431 193.845 141.554 192.835 138.703 191.73C138.697 192.256 138.654 192.781 138.572 193.301C142.329 194.837 146.142 196.214 150.01 197.434C152.991 198.373 156.36 199.186 159.135 197.737C160.732 196.903 161.89 195.423 162.923 193.943C164.662 191.457 166.209 188.84 167.551 186.117C169.032 183.116 170.281 179.959 172.325 177.312C174.37 174.665 177.417 172.543 180.751 172.614C185.384 172.715 189.912 176.908 194.132 174.993C202.669 171.123 202.019 153.836 202.417 146.106C202.88 137.119 212.63 130.117 204.482 121.61Z" fill="black"/>
</g>
<path opacity="0.1" d="M138.119 192.558C137.691 193.316 137.273 194.074 136.89 194.852C136.744 195.15 136.603 195.458 136.477 195.766C133.838 193.099 127.412 186.759 123.826 184.794C124.698 182.919 125.834 181.18 127.2 179.631C127.2 179.631 135.747 184.162 138.119 192.558Z" fill="black"/>
<path d="M138.356 192.144C136.377 183.157 127.2 178.292 127.2 178.292C125.833 179.841 124.697 181.58 123.826 183.455C127.608 185.531 134.579 192.493 136.89 194.852L138.356 192.144Z" fill="#EB5569"/>
<defs>
<linearGradient id="paint0_linear_4_6" x1="368.094" y1="48.575" x2="368.094" y2="39.2897" gradientUnits="userSpaceOnUse">
<stop stop-color="#808080" stop-opacity="0.25"/>
<stop offset="0.54" stop-color="#808080" stop-opacity="0.12"/>
<stop offset="1" stop-color="#808080" stop-opacity="0.1"/>
</linearGradient>
<linearGradient id="paint1_linear_4_6" x1="231050" y1="332668" x2="231050" y2="23194.7" gradientUnits="userSpaceOnUse">
<stop stop-color="#808080" stop-opacity="0.25"/>
<stop offset="0.54" stop-color="#808080" stop-opacity="0.12"/>
<stop offset="1" stop-color="#808080" stop-opacity="0.1"/>
</linearGradient>
</defs>
</svg>
